# xmcd
#
# Track frame offsets: 
#        150
#        27436
#        48378
#        81329
#        89715
#        117108
#        136816
#        157982
#        173110
#        185718
#        209175
#        240847
#        254847
#        282927
#
# Disc length: 4224 seconds
#
# Revision: 0
# Processed by: cddbd v1.5.2PL0 Copyright (c) Steve Scherf et al.
# Submitted via: ExactAudioCopy v1.0b4
#
DISCID=cc107e0e
DTITLE=I Ching - I Ching
DYEAR=1900
DGENRE=
TTITLE0=Heksagram Szescdziesiaty Piaty
TTITLE1=Miss Propagandiss
TTITLE2=Dyktator
TTITLE3=Nie Bedzie Nas
TTITLE4=Ja Plone
TTITLE5=Wojna Chudych Z Grubymi
TTITLE6=Gazeta
TTITLE7=Czlowiek Mafii
TTITLE8=Rozne Rozmowy Z Zyciem
TTITLE9=Super Ego
TTITLE10=Milo
TTITLE11=Sluchaj, Man
TTITLE12=Kolysanka Dla Misiakow
TTITLE13=I Ching
EXTD=
EXTT0=
EXTT1=
EXTT2=
EXTT3=
EXTT4=
EXTT5=
EXTT6=
EXTT7=
EXTT8=
EXTT9=
EXTT10=
EXTT11=
EXTT12=
EXTT13=
PLAYORDER=
